<?xml version="1.0" encoding="utf-8"?>

<!DOCTYPE svg PUBLIC "-//W3C//DTD SVG 1.1//EN" "http://www.w3.org/Graphics/SVG/1.1/DTD/svg11.dtd">
<svg version="1.1" id="Layer_1" xmlns="http://www.w3.org/2000/svg" xmlns:xlink="http://www.w3.org/1999/xlink" x="0px" y="0px"
	 viewBox="0 0 1309.876 1759.653" enable-background="new 0 0 1309.876 1759.653" xml:space="preserve">
<g>
	<path d="M841.503,402.413c177.963-0.292,162.23-7.295,161.934,126.027c54.869-35.873,109.825-71.612,164.734-107.433
		c15.062,2.596,29.873,6.536,44.242,11.733c0.087,97.108,0.029,194.223,0.035,291.337c-14.404,5.296-29.302,9.137-44.393,11.826
		c-54.915-35.681-109.749-71.502-164.612-107.27c0.133,81.507,3.638,86.956-14.451,100.717
		c-24.12,18.346-9.148,13.758-432.978,13.758c-19.799,0.378-42.665-6.387-54.519-22.086c-7.827-10.319-6.312-14.797-6.256-63.063
		c-61.806,12.571-123.676,24.833-185.476,37.439c0.676,6.027,1.671,14.696-1.053,18.175c-4.062-4.574-4.836-11.017-6.408-16.714
		c-13.385,2.75-109.711,33.307-187.972,38.358c-3.893,0.198-17.037,0.906-19.002-2.345c2.642-13.392,154.979-47.905,204.966-46.68
		c-0.722-4.734-3.051-20.947-0.308-24.891c3.876-0.654,7.707,20.183,8.392,23.785c62.271-12.623,124.578-25.083,186.861-37.66
		c-0.013-49.849,0.962-124.107-0.564-140.045c-33.116,0.801-66.284-7.457-95.177-23.618
		c-163.92-91.677-91.395-341.895,103.042-326.898c46.382,3.577,78.351,23.831,78.351,23.831c4.417,0.21,7.712-9.99,10.282-14.305
		c64.039-107.497,221.029-114.843,296.524-20.217C954.681,230.131,930.537,348.266,841.503,402.413z"/>
	<path d="M629.67,752.832c78.474-0.105,156.947-0.035,235.415-0.035C839.053,874.034,660.89,881.696,629.67,752.832z"/>
	<path d="M619.543,852.234c85.126,0.006,170.245,0.006,255.365,0.006c0,27.656-0.064,55.311,0.035,82.972
		c-14.13,0.023-28.255,0.035-42.379-0.012c1.408,2.221,377.927,727.716,381.467,734.802c0.873,1.63,0.664,3.905-0.815,5.145
		c-2.331,2.042-6.811,7.564-10.231,3.573c-171.421-311.979-405.746-738.223-408.489-743.485c-14.852-0.012-29.71-0.017-44.562,0.006
		c18.769,681.234,19.442,641.573,12.885,642.804c-19.056-288.452-42.619-640.306-42.56-642.815
		c-8.957-0.006-17.913-0.012-26.87,0.006c-135.693,247.019-271.329,494.068-407.15,741.012c-1.496-1.443-3.044-2.834-4.644-4.15
		c1.609-2.708,331.844-639.22,382.707-736.868c-14.934-0.012-29.861,0.023-44.789-0.017
		C619.607,907.551,619.549,879.895,619.543,852.234z"/>
</g>
</svg>
