<?xml version="1.0" encoding="UTF-8" standalone="no"?>
<!-- Created with Inkscape (http://www.inkscape.org/) -->

<svg
   xmlns:dc="http://purl.org/dc/elements/1.1/"
   xmlns:cc="http://creativecommons.org/ns#"
   xmlns:rdf="http://www.w3.org/1999/02/22-rdf-syntax-ns#"
   xmlns:svg="http://www.w3.org/2000/svg"
   xmlns="http://www.w3.org/2000/svg"
   xmlns:sodipodi="http://sodipodi.sourceforge.net/DTD/sodipodi-0.dtd"
   xmlns:inkscape="http://www.inkscape.org/namespaces/inkscape"
   version="1.1"
   id="svg7784"
   xml:space="preserve"
   width="793.33331"
   height="793.33331"
   viewBox="0 0 793.33331 793.33331"
   sodipodi:docname="fired-bullet-publicdomainvectors.org.svg"
   inkscape:version="0.92.4 (5da689c313, 2019-01-14)"><metadata
     id="metadata7790"><rdf:RDF><cc:Work
         rdf:about=""><dc:format>image/svg+xml</dc:format><dc:type
           rdf:resource="http://purl.org/dc/dcmitype/StillImage" /><dc:title></dc:title></cc:Work></rdf:RDF></metadata><defs
     id="defs7788"><clipPath
       clipPathUnits="userSpaceOnUse"
       id="clipPath7800"><path
         d="M 0,595 H 595 V 0 H 0 Z"
         id="path7798"
         inkscape:connector-curvature="0" /></clipPath></defs><sodipodi:namedview
     pagecolor="#ffffff"
     bordercolor="#666666"
     borderopacity="1"
     objecttolerance="10"
     gridtolerance="10"
     guidetolerance="10"
     inkscape:pageopacity="0"
     inkscape:pageshadow="2"
     inkscape:window-width="724"
     inkscape:window-height="480"
     id="namedview7786"
     showgrid="false"
     inkscape:zoom="0.297479"
     inkscape:cx="396.66666"
     inkscape:cy="396.66666"
     inkscape:window-x="0"
     inkscape:window-y="0"
     inkscape:window-maximized="0"
     inkscape:current-layer="g7792" /><g
     id="g7792"
     inkscape:groupmode="layer"
     inkscape:label="fired-bullet-publicdomainvectors.org"
     transform="matrix(1.3333333,0,0,-1.3333333,0,793.33333)"><g
       id="g7794"><g
         id="g7796"
         clip-path="url(#clipPath7800)"><path
           d="m 439.924,319.848 c -73.746,23.569 -136.715,-4.58 -172.767,16.569 17.67,30.186 138.363,-4.98 176.515,27.486 -49.438,-14.813 -126.008,20.543 -165.629,16.599 -43.041,-4.283 -55.863,-27.843 -55.863,-27.843 l 22.266,0.436 -0.263,0.349 c 0,0 0.382,0.27 1.093,0.776 0.724,0.506 1.719,1.25 3.168,2.193 1.408,0.964 3.141,2.051 5.168,3.246 2.056,1.16 4.394,2.451 7.099,3.594 1.325,0.617 2.782,1.115 4.262,1.67 1.518,0.465 3.073,0.99 4.727,1.339 3.281,0.766 6.822,1.283 10.468,1.319 3.649,0.063 7.386,-0.243 11.11,-0.822 3.746,-0.658 7.322,-1.453 10.982,-2.137 14.621,-2.778 29.359,-5.131 40.428,-6.682 5.539,-0.769 10.164,-1.32 13.412,-1.595 1.623,-0.16 2.904,-0.2 3.775,-0.227 0.873,0.014 1.34,0.022 1.34,0.022 0,0 -0.465,-0.034 -1.34,-0.095 -0.871,-0.019 -2.16,-0.048 -3.791,0.024 -3.268,0.102 -7.928,0.402 -13.508,0.873 -11.162,0.955 -26.01,2.512 -40.838,4.51 -3.705,0.487 -7.452,1.106 -10.968,1.528 -3.56,0.359 -7.059,0.451 -10.396,0.212 -3.346,-0.211 -6.508,-0.856 -9.42,-1.705 -1.469,-0.387 -2.844,-0.945 -4.186,-1.43 -1.313,-0.58 -2.596,-1.089 -3.775,-1.721 -2.393,-1.164 -4.487,-2.474 -6.327,-3.648 -1.826,-1.213 -3.396,-2.318 -4.632,-3.265 -0.555,-0.404 -1.057,-0.79 -1.51,-1.149 1.77,-5.803 5.515,-19.522 6.373,-34.328 0.672,-0.347 1.426,-0.752 2.41,-1.106 0.512,-0.203 1.051,-0.419 1.615,-0.646 0.588,-0.18 1.203,-0.369 1.845,-0.566 1.263,-0.445 2.732,-0.689 4.253,-1.073 3.109,-0.576 6.688,-1.046 10.657,-1.281 3.974,-0.212 8.31,-0.269 12.92,-0.181 4.61,0.107 9.485,0.317 14.536,0.591 10.103,0.557 20.91,1.29 31.738,1.733 5.41,0.234 10.83,0.384 16.166,0.451 2.666,0.017 5.313,0.057 7.926,0.021 2.615,-0.007 5.197,-0.044 7.736,-0.122 5.078,-0.116 9.987,-0.352 14.631,-0.659 2.324,-0.125 4.578,-0.334 6.76,-0.514 2.183,-0.165 4.287,-0.381 6.306,-0.605 4.043,-0.391 7.729,-0.924 10.997,-1.339 3.259,-0.506 6.099,-0.948 8.437,-1.312 4.656,-0.847 7.316,-1.331 7.316,-1.331 0,0 -2.671,0.402 -7.351,1.104 -2.346,0.29 -5.195,0.645 -8.463,1.049 -3.279,0.314 -6.969,0.731 -11.012,0.995 -2.017,0.161 -4.119,0.312 -6.3,0.408 -2.182,0.114 -4.432,0.251 -6.752,0.305 -4.635,0.162 -9.528,0.246 -14.584,0.205 -2.53,-0.002 -5.1,-0.043 -7.702,-0.118 -2.601,-0.043 -5.234,-0.165 -7.886,-0.266 -5.305,-0.23 -10.692,-0.546 -16.073,-0.944 -10.767,-0.775 -21.515,-1.84 -31.634,-2.714 -5.063,-0.43 -9.971,-0.795 -14.646,-1.049 -4.678,-0.233 -9.129,-0.315 -13.262,-0.22 -4.135,0.114 -7.953,0.489 -11.338,1.012 -1.686,0.365 -3.281,0.585 -4.729,1.037 -0.728,0.2 -1.425,0.392 -2.093,0.577 -0.655,0.238 -1.283,0.464 -1.877,0.678 -0.127,0.052 -0.248,0.09 -0.371,0.136 0.028,-10.971 -1.83,-22.049 -7.489,-30.541 l -0.157,0.005 c 0.134,-0.285 0.306,-0.613 0.462,-0.948 0.611,-1.016 1.418,-2.267 2.627,-3.577 1.203,-1.298 2.663,-2.732 4.471,-4.094 1.795,-1.361 3.832,-2.768 6.146,-4.023 2.307,-1.251 4.811,-2.493 7.52,-3.51 2.701,-1.031 5.553,-1.984 8.526,-2.687 1.474,-0.407 2.999,-0.658 4.515,-0.988 1.53,-0.227 3.061,-0.541 4.613,-0.689 l 2.325,-0.264 2.332,-0.165 c 1.553,-0.139 3.105,-0.131 4.646,-0.177 1.542,-0.027 3.07,0.053 4.583,0.07 1.508,0.108 3.004,0.186 4.471,0.319 1.463,0.177 2.906,0.306 4.311,0.514 1.402,0.232 2.777,0.427 4.111,0.674 1.324,0.274 2.615,0.541 3.863,0.799 1.239,0.312 2.434,0.614 3.582,0.903 1.155,0.27 2.229,0.637 3.268,0.94 1.029,0.325 2.025,0.581 2.93,0.916 1.812,0.652 3.419,1.167 4.703,1.686 2.572,1.033 4.045,1.624 4.045,1.624 0,0 -1.438,-0.668 -3.957,-1.837 -1.258,-0.587 -2.836,-1.187 -4.622,-1.937 -0.892,-0.384 -1.875,-0.694 -2.892,-1.075 -1.026,-0.36 -2.09,-0.787 -3.238,-1.119 -1.141,-0.353 -2.33,-0.72 -3.561,-1.101 -1.246,-0.327 -2.537,-0.665 -3.863,-1.014 -1.332,-0.32 -2.715,-0.593 -4.123,-0.901 -1.414,-0.286 -2.873,-0.495 -4.352,-0.754 -1.484,-0.214 -3.004,-0.375 -4.539,-0.564 -1.541,-0.103 -3.101,-0.265 -4.679,-0.321 -1.582,-0.037 -3.176,-0.128 -4.778,-0.07 l -2.408,0.044 -2.411,0.145 c -1.612,0.07 -3.211,0.308 -4.813,0.46 -1.588,0.257 -3.185,0.438 -4.741,0.779 -3.138,0.571 -6.177,1.408 -9.082,2.343 -2.912,0.924 -5.64,2.097 -8.185,3.311 -2.549,1.216 -4.85,2.619 -6.914,4.022 -2.072,1.4 -3.832,2.934 -5.324,4.392 -1.495,1.462 -2.633,2.98 -3.508,4.305 -0.404,0.722 -0.76,1.29 -1.049,1.953 -0.137,0.341 -0.263,0.655 -0.379,0.944 -0.107,0.281 -0.23,0.587 -0.259,0.736 -0.008,0.035 -0.016,0.059 -0.022,0.091 l -26.595,0.734 c 20.568,-4.954 28.929,-44.085 87.809,-34.448 42.346,6.932 57.174,32.952 89.955,22.31 -8.568,20.347 -51.043,6.143 -73.533,6.426 -22.488,0.282 -32.484,10.708 -32.484,10.708 0,0 46.095,22.262 154.564,6.961 99.949,-14.099 140.283,21.663 147.067,35.161 0,0 -46.762,-41.024 -150.637,-7.825"
           style="fill:#f15a24;fill-opacity:1;fill-rule:nonzero;stroke:none"
           id="path7802"
           inkscape:connector-curvature="0" /><path
           d="m 248.584,306.667 -5.078,0.109 c 0.354,2.289 0.526,4.545 0.518,6.864 h 5.018 c 0.041,-2.326 -0.113,-4.666 -0.458,-6.973 m -5.335,17.882 h 5.714 l 0.048,-1.071 h -5.651 z m -2.279,14.524 h 5.566 l 0.701,-3.213 h -5.564 z m -8.841,-16.131 -0.324,2.142 h 6.661 l 0.357,-2.142 z m 6.371,-14.935 h -6.693 l 0.512,2.141 h 6.502 z m -8.501,31.601 h 6.66 l 0.937,-4.283 h -6.66 z m -1.34,-32.261 -2.164,10.062 -2.526,-11.741 -2.525,11.741 -2.524,-11.741 -2.525,11.741 -2.524,-11.741 -2.526,11.741 -2.524,-11.74 -2.526,11.74 -2.523,-11.741 -2.526,11.741 -2.526,-11.741 -2.524,11.741 -2.525,-11.741 -2.524,11.741 -2.526,-11.741 -2.526,11.741 -2.524,-11.741 -2.526,11.741 -2.525,-11.741 -2.524,11.741 -2.525,-11.74 -2.525,11.74 -2.525,-11.74 -2.526,11.74 -2.524,-11.739 -2.525,11.739 -2.525,-11.742 -2.526,11.742 -2.523,-11.74 -2.525,11.74 -2.524,-11.741 -2.527,11.741 -2.526,-11.741 -2.523,11.741 -2.525,-11.741 -2.526,11.741 -2.525,-11.741 -2.525,11.741 -2.524,-11.741 -2.525,11.741 -2.526,-11.741 -2.525,11.741 -2.141,-9.956 v 10.103 h 110.577 c 0.06,-3.472 -0.016,-6.916 -0.223,-10.209 m -4.872,-10.239 h -1.659 -5.049 -5.049 -5.051 -5.049 -5.051 -5.049 -5.05 -5.049 -5.052 -5.05 -5.049 -5.05 -5.049 -5.051 -5.05 -5.049 -5.051 -5.049 -5.051 -5.05 -2.11 v 2.142 h 2.571 5.05 5.049 5.051 5.051 5.049 5.05 5.051 5.049 5.05 5.049 5.051 5.049 5.051 5.05 5.05 5.05 5.049 5.049 5.051 5.05 1.197 z M 118.305,325.353 H 228.52 c 0.088,-1.166 0.162,-2.336 0.219,-3.514 H 118.305 Z m 0,17.312 h 107.461 c 0.725,-2.665 1.324,-5.618 1.797,-8.746 H 118.305 Z m -6.919,-45.64 c -0.452,-0.074 -1.112,-0.149 -1.948,-0.229 -1.677,-0.15 -4.061,-0.254 -6.904,-0.197 -5.686,0.106 -13.219,0.843 -20.617,2.3 -7.395,1.429 -14.678,3.598 -19.729,6.165 -1.268,0.624 -2.379,1.298 -3.34,1.923 -0.465,0.337 -0.9,0.652 -1.303,0.944 -0.377,0.322 -0.724,0.619 -1.036,0.886 -0.58,0.589 -1.036,1.046 -1.284,1.411 -0.27,0.348 -0.414,0.533 -0.414,0.533 0,0 0.15,-0.179 0.432,-0.517 0.262,-0.357 0.736,-0.797 1.328,-1.358 0.32,-0.255 0.675,-0.537 1.059,-0.844 0.41,-0.274 0.851,-0.572 1.325,-0.89 0.977,-0.585 2.099,-1.213 3.378,-1.787 5.094,-2.365 12.392,-4.258 19.771,-5.41 7.379,-1.184 14.863,-1.644 20.433,-1.549 2.786,0.045 5.09,0.229 6.679,0.428 0.793,0.106 1.413,0.197 1.827,0.282 0.417,0.075 0.641,0.114 0.641,0.114 l 0.394,-2.104 c 0,0 -0.242,-0.035 -0.692,-0.101 m -56.012,24.057 c 0.119,0.173 0.245,0.355 0.376,0.546 0.153,0.178 0.313,0.362 0.479,0.557 0.336,0.386 0.7,0.808 1.088,1.257 0.197,0.227 0.4,0.461 0.609,0.702 0.221,0.226 0.461,0.44 0.701,0.671 0.487,0.459 0.999,0.943 1.534,1.446 0.529,0.515 1.162,0.942 1.779,1.446 0.629,0.48 1.258,1.026 1.977,1.465 0.709,0.466 1.437,0.945 2.181,1.432 0.758,0.463 1.562,0.883 2.369,1.34 0.803,0.473 1.647,0.883 2.512,1.282 0.865,0.391 1.727,0.855 2.631,1.203 0.902,0.363 1.811,0.73 2.725,1.099 0.919,0.357 1.857,0.653 2.791,0.982 0.935,0.337 1.876,0.634 2.822,0.897 0.945,0.272 1.885,0.567 2.824,0.815 1.883,0.459 3.742,0.961 5.556,1.308 1.81,0.403 3.569,0.719 5.241,0.998 1.672,0.314 3.258,0.498 4.723,0.719 1.467,0.227 2.812,0.338 4.006,0.488 1.196,0.147 2.238,0.237 3.097,0.311 1.717,0.152 2.7,0.239 2.7,0.239 v -9.638 c 0,0 -0.931,0.064 -2.563,0.176 -0.817,0.059 -1.809,0.13 -2.946,0.169 -1.134,0.036 -2.424,0.133 -3.822,0.136 -1.398,0.012 -2.924,0.075 -4.523,0.027 -1.605,-0.011 -3.299,-0.049 -5.041,-0.155 -1.756,-0.056 -3.543,-0.25 -5.379,-0.399 -0.914,-0.093 -1.824,-0.229 -2.748,-0.342 -0.926,-0.106 -1.846,-0.242 -2.76,-0.419 -0.912,-0.17 -1.842,-0.306 -2.748,-0.503 -0.903,-0.208 -1.804,-0.416 -2.697,-0.622 -0.904,-0.191 -1.754,-0.493 -2.623,-0.732 -0.87,-0.243 -1.723,-0.502 -2.533,-0.822 -0.815,-0.307 -1.637,-0.582 -2.417,-0.901 -0.769,-0.347 -1.519,-0.687 -2.251,-1.018 -0.751,-0.307 -1.408,-0.723 -2.077,-1.084 -0.652,-0.382 -1.329,-0.696 -1.902,-1.1 -0.584,-0.399 -1.142,-0.782 -1.672,-1.144 -0.266,-0.185 -0.535,-0.356 -0.779,-0.539 -0.231,-0.194 -0.457,-0.384 -0.674,-0.567 -0.44,-0.371 -0.854,-0.719 -1.234,-1.039 -0.193,-0.163 -0.377,-0.319 -0.553,-0.467 -0.16,-0.169 -0.313,-0.328 -0.457,-0.481 -1.16,-1.217 -1.821,-1.912 -1.821,-1.912 0,0 0.544,0.79 1.499,2.173 m 189.857,28.442 c -0.174,0.388 -0.558,0.637 -0.98,0.637 h -10.262 c -0.362,0 -0.699,-0.183 -0.898,-0.488 -0.196,-0.304 -0.227,-0.688 -0.08,-1.02 0.401,-0.899 0.777,-1.877 1.13,-2.911 -1.652,-1.507 -4.847,-1.49 -6.9,-0.492 -0.484,1.539 -1.008,2.979 -1.584,4.274 -0.174,0.388 -0.557,0.637 -0.98,0.637 H 117.235 c -0.592,0 -1.071,-0.48 -1.071,-1.072 v -0.313 C 81.11,348.765 57.791,341.085 46.848,325.953 l -0.201,-0.281 v -15.684 l 0.201,-0.282 c 13.768,-19.04 45.274,-23.055 69.316,-23.065 v -1.09 c 0,-0.592 0.479,-1.071 1.071,-1.071 h 107.442 c 0.357,0 0.691,0.178 0.888,0.474 0.318,0.471 0.617,1.011 0.908,1.579 h 0.022 v 0.046 c 0.475,0.937 0.912,1.993 1.314,3.161 2.082,0.974 5.153,0.716 6.707,-0.869 -0.434,-1.036 -0.904,-1.962 -1.414,-2.723 -0.222,-0.328 -0.244,-0.751 -0.058,-1.1 0.187,-0.349 0.551,-0.568 0.945,-0.568 h 10.262 c 0.357,0 0.691,0.178 0.89,0.474 3.484,5.181 5.311,16.421 5.483,28.525 -0.143,0.086 -0.241,0.146 -0.241,0.146 l 0.247,0.394 c 0.134,13.091 -1.661,27.101 -5.399,35.505"
           style="fill:#000000;fill-opacity:1;fill-rule:nonzero;stroke:none"
           id="path7804"
           inkscape:connector-curvature="0" /><path
           d="m 56.153,321.302 c 0.176,0.148 0.359,0.304 0.553,0.466 0.38,0.322 0.794,0.669 1.234,1.039 0.218,0.184 0.443,0.374 0.675,0.569 0.244,0.182 0.512,0.353 0.776,0.537 0.533,0.363 1.091,0.746 1.674,1.144 0.572,0.406 1.251,0.719 1.902,1.1 0.668,0.361 1.326,0.778 2.078,1.084 0.731,0.332 1.482,0.672 2.25,1.019 0.78,0.319 1.601,0.594 2.418,0.901 0.809,0.32 1.662,0.578 2.532,0.822 0.87,0.238 1.72,0.541 2.623,0.733 0.892,0.206 1.794,0.413 2.698,0.622 0.905,0.196 1.835,0.333 2.748,0.502 0.912,0.176 1.834,0.313 2.76,0.419 0.923,0.113 1.834,0.249 2.747,0.341 1.837,0.15 3.623,0.344 5.379,0.401 1.743,0.107 3.435,0.142 5.042,0.154 1.598,0.047 3.125,-0.016 4.522,-0.026 1.398,-0.004 2.688,-0.101 3.822,-0.138 1.135,-0.039 2.129,-0.109 2.947,-0.168 1.632,-0.111 2.561,-0.176 2.561,-0.176 v 9.637 c 0,0 -0.981,-0.086 -2.7,-0.238 -0.858,-0.074 -1.9,-0.163 -3.095,-0.311 -1.196,-0.149 -2.541,-0.262 -4.006,-0.488 -1.466,-0.221 -3.051,-0.405 -4.724,-0.719 -1.673,-0.279 -3.432,-0.596 -5.241,-0.998 -1.814,-0.347 -3.672,-0.849 -5.555,-1.309 -0.94,-0.248 -1.882,-0.542 -2.825,-0.814 -0.946,-0.263 -1.888,-0.56 -2.821,-0.897 -0.934,-0.33 -1.873,-0.625 -2.791,-0.982 -0.914,-0.369 -1.824,-0.735 -2.726,-1.1 -0.904,-0.347 -1.766,-0.812 -2.631,-1.203 -0.864,-0.398 -1.709,-0.808 -2.512,-1.279 -0.807,-0.459 -1.61,-0.879 -2.371,-1.34 -0.742,-0.49 -1.469,-0.968 -2.178,-1.433 -0.719,-0.44 -1.348,-0.986 -1.978,-1.466 -0.616,-0.505 -1.249,-0.931 -1.779,-1.446 -0.534,-0.503 -1.046,-0.987 -1.534,-1.446 -0.24,-0.23 -0.48,-0.445 -0.701,-0.672 -0.209,-0.24 -0.412,-0.474 -0.608,-0.701 -0.39,-0.449 -0.753,-0.869 -1.089,-1.258 -0.167,-0.195 -0.326,-0.379 -0.479,-0.556 -0.131,-0.191 -0.257,-0.372 -0.376,-0.546 -0.954,-1.384 -1.499,-2.173 -1.499,-2.173 0,0 0.661,0.695 1.821,1.912 0.144,0.153 0.297,0.313 0.457,0.481"
           style="fill:#ffffff;fill-opacity:1;fill-rule:nonzero;stroke:none"
           id="path7806"
           inkscape:connector-curvature="0" /><path
           d="m 217.54,299.249 h -5.05 -5.05 -5.049 -5.05 -5.05 -5.05 -5.051 -5.049 -5.051 -5.049 -5.05 -5.049 -5.051 -5.05 -5.049 -5.051 -5.051 -5.049 -5.05 -2.573 v -2.142 h 2.112 5.05 5.051 5.049 5.051 5.049 5.05 5.049 5.051 5.05 5.049 5.051 5.049 5.051 5.05 5.049 5.051 5.049 5.051 5.049 5.049 1.659 v 2.142 h -1.197 z"
           style="fill:#ffffff;fill-opacity:1;fill-rule:nonzero;stroke:none"
           id="path7808"
           inkscape:connector-curvature="0" /><path
           d="m 111.043,299.115 c -0.414,-0.085 -1.034,-0.176 -1.827,-0.28 -1.589,-0.2 -3.893,-0.384 -6.679,-0.43 -5.57,-0.094 -13.054,0.366 -20.433,1.55 -7.379,1.151 -14.677,3.046 -19.771,5.41 -1.279,0.574 -2.401,1.201 -3.378,1.787 -0.474,0.318 -0.915,0.616 -1.325,0.891 -0.384,0.306 -0.739,0.589 -1.059,0.844 -0.592,0.559 -1.066,1 -1.328,1.357 -0.282,0.338 -0.432,0.518 -0.432,0.518 0,0 0.144,-0.186 0.414,-0.534 0.248,-0.365 0.704,-0.822 1.284,-1.411 0.312,-0.267 0.659,-0.563 1.036,-0.886 0.403,-0.292 0.838,-0.608 1.303,-0.944 0.961,-0.626 2.072,-1.299 3.342,-1.924 5.049,-2.566 12.332,-4.735 19.727,-6.164 7.398,-1.457 14.931,-2.194 20.617,-2.3 2.843,-0.057 5.227,0.047 6.904,0.197 0.836,0.081 1.496,0.155 1.948,0.229 0.45,0.066 0.692,0.102 0.692,0.102 l -0.394,2.103 c 0,0 -0.224,-0.04 -0.641,-0.115"
           style="fill:#ffffff;fill-opacity:1;fill-rule:nonzero;stroke:none"
           id="path7810"
           inkscape:connector-curvature="0" /><path
           d="m 237.596,335.325 -0.937,4.283 h -6.66 l 0.936,-4.283 z"
           style="fill:#ffffff;fill-opacity:1;fill-rule:nonzero;stroke:none"
           id="path7812"
           inkscape:connector-curvature="0" /><path
           d="m 247.238,335.86 -0.702,3.213 h -5.567 l 0.705,-3.213 z"
           style="fill:#ffffff;fill-opacity:1;fill-rule:nonzero;stroke:none"
           id="path7814"
           inkscape:connector-curvature="0" /><path
           d="m 238.823,322.942 -0.356,2.143 h -6.662 l 0.324,-2.143 z"
           style="fill:#ffffff;fill-opacity:1;fill-rule:nonzero;stroke:none"
           id="path7816"
           inkscape:connector-curvature="0" /><path
           d="m 238.822,310.148 h -6.502 l -0.515,-2.141 h 6.695 z"
           style="fill:#ffffff;fill-opacity:1;fill-rule:nonzero;stroke:none"
           id="path7818"
           inkscape:connector-curvature="0" /><path
           d="m 249.011,323.478 -0.048,1.071 h -5.714 l 0.113,-1.071 z"
           style="fill:#ffffff;fill-opacity:1;fill-rule:nonzero;stroke:none"
           id="path7820"
           inkscape:connector-curvature="0" /><path
           d="m 248.584,306.667 c 0.345,2.307 0.499,4.647 0.458,6.973 h -5.018 c 0.008,-2.319 -0.164,-4.575 -0.518,-6.864 z"
           style="fill:#ffffff;fill-opacity:1;fill-rule:nonzero;stroke:none"
           id="path7822"
           inkscape:connector-curvature="0" /><path
           d="m 256.666,354.688 c 1.84,1.172 3.934,2.484 6.327,3.648 1.179,0.632 2.462,1.142 3.775,1.722 1.34,0.484 2.717,1.043 4.186,1.429 2.913,0.848 6.074,1.494 9.42,1.705 3.337,0.239 6.836,0.146 10.396,-0.211 3.517,-0.423 7.265,-1.041 10.968,-1.53 14.826,-1.997 29.676,-3.554 40.838,-4.509 5.58,-0.47 10.24,-0.771 13.508,-0.875 1.631,-0.069 2.92,-0.043 3.791,-0.022 0.875,0.061 1.34,0.095 1.34,0.095 0,0 -0.467,-0.008 -1.34,-0.023 -0.871,0.029 -2.152,0.068 -3.775,0.228 -3.248,0.276 -7.873,0.825 -13.414,1.595 -11.067,1.551 -25.805,3.905 -40.426,6.682 -3.66,0.684 -7.238,1.479 -10.984,2.137 -3.721,0.579 -7.461,0.885 -11.108,0.822 -3.648,-0.037 -7.189,-0.555 -10.467,-1.32 -1.655,-0.348 -3.209,-0.873 -4.728,-1.338 -1.48,-0.555 -2.936,-1.052 -4.262,-1.67 -2.705,-1.143 -5.043,-2.436 -7.099,-3.595 -2.027,-1.194 -3.76,-2.281 -5.17,-3.245 -1.446,-0.943 -2.442,-1.687 -3.166,-2.193 -0.713,-0.507 -1.092,-0.778 -1.092,-0.778 l 0.262,-0.347 3.596,-4.789 c 0,0 0.365,0.291 1.048,0.834 0.379,0.295 0.868,0.691 1.432,1.134 0.455,0.358 0.957,0.745 1.512,1.148 1.236,0.948 2.806,2.054 4.632,3.266"
           style="fill:#ffffff;fill-opacity:1;fill-rule:nonzero;stroke:none"
           id="path7824"
           inkscape:connector-curvature="0" /><path
           d="m 259.322,309.387 c 0.668,-0.184 1.364,-0.376 2.092,-0.575 1.449,-0.453 3.043,-0.673 4.729,-1.037 3.386,-0.524 7.203,-0.9 11.338,-1.014 4.133,-0.094 8.584,-0.013 13.263,0.222 4.674,0.253 9.582,0.619 14.643,1.049 10.121,0.873 20.869,1.938 31.636,2.712 5.381,0.4 10.768,0.715 16.071,0.946 2.654,0.099 5.287,0.221 7.888,0.264 2.602,0.076 5.172,0.117 7.702,0.119 5.056,0.042 9.949,-0.042 14.584,-0.206 2.32,-0.053 4.57,-0.191 6.752,-0.304 2.181,-0.097 4.281,-0.246 6.3,-0.407 4.043,-0.264 7.733,-0.682 11.012,-0.996 3.268,-0.405 6.117,-0.758 8.463,-1.049 4.68,-0.703 7.351,-1.104 7.351,-1.104 0,0 -2.66,0.484 -7.316,1.331 -2.338,0.364 -5.178,0.806 -8.437,1.312 -3.268,0.416 -6.954,0.949 -10.997,1.339 -2.019,0.225 -4.123,0.44 -6.306,0.606 -2.182,0.178 -4.436,0.387 -6.76,0.513 -4.644,0.307 -9.553,0.543 -14.631,0.659 -2.539,0.078 -5.121,0.115 -7.736,0.121 -2.613,0.037 -5.26,-0.004 -7.926,-0.021 -5.336,-0.067 -10.756,-0.216 -16.166,-0.45 -10.828,-0.443 -21.633,-1.177 -31.738,-1.733 -5.051,-0.275 -9.926,-0.485 -14.537,-0.591 -4.608,-0.088 -8.946,-0.031 -12.92,0.182 -3.968,0.233 -7.547,0.704 -10.658,1.279 -1.519,0.386 -2.987,0.629 -4.252,1.074 -0.641,0.196 -1.256,0.385 -1.844,0.567 -0.564,0.226 -1.104,0.441 -1.615,0.646 -0.984,0.353 -1.739,0.758 -2.412,1.105 -0.049,0.026 -0.103,0.055 -0.153,0.081 -0.359,0.178 -0.689,0.345 -0.992,0.496 -0.326,0.213 -0.624,0.406 -0.889,0.578 -1.062,0.69 -1.629,1.058 -1.629,1.058 l -2.601,-4.14 -0.248,-0.395 c 0,0 0.098,-0.059 0.241,-0.146 0.259,-0.157 0.722,-0.437 1.419,-0.86 0.273,-0.165 0.574,-0.347 0.909,-0.549 0.394,-0.193 0.826,-0.402 1.292,-0.629 0.469,-0.223 0.973,-0.461 1.507,-0.717 0.425,-0.209 0.867,-0.357 1.323,-0.521 0.123,-0.045 0.242,-0.085 0.37,-0.135 0.594,-0.215 1.222,-0.442 1.878,-0.68"
           style="fill:#ffffff;fill-opacity:1;fill-rule:nonzero;stroke:none"
           id="path7826"
           inkscape:connector-curvature="0" /><path
           d="m 244.059,278.994 c 0.116,-0.289 0.242,-0.603 0.379,-0.944 0.288,-0.663 0.645,-1.231 1.049,-1.953 0.877,-1.325 2.012,-2.843 3.508,-4.305 1.494,-1.458 3.252,-2.992 5.324,-4.392 2.064,-1.403 4.365,-2.806 6.913,-4.022 2.546,-1.214 5.274,-2.387 8.186,-3.311 2.907,-0.935 5.944,-1.772 9.081,-2.343 1.557,-0.341 3.156,-0.522 4.742,-0.779 1.602,-0.152 3.2,-0.39 4.813,-0.46 l 2.411,-0.145 2.407,-0.044 c 1.603,-0.058 3.197,0.033 4.778,0.07 1.579,0.056 3.139,0.218 4.68,0.321 1.535,0.189 3.055,0.35 4.539,0.564 1.479,0.259 2.938,0.468 4.352,0.754 1.408,0.308 2.791,0.581 4.123,0.901 1.326,0.349 2.615,0.687 3.863,1.014 1.231,0.381 2.42,0.748 3.561,1.101 1.148,0.332 2.212,0.759 3.238,1.119 1.017,0.381 2,0.691 2.892,1.075 1.786,0.75 3.364,1.35 4.622,1.937 2.519,1.169 3.957,1.837 3.957,1.837 0,0 -1.473,-0.591 -4.045,-1.624 -1.284,-0.519 -2.891,-1.034 -4.703,-1.686 -0.905,-0.335 -1.899,-0.591 -2.93,-0.916 -1.039,-0.303 -2.113,-0.67 -3.268,-0.94 -1.148,-0.289 -2.343,-0.591 -3.58,-0.903 -1.25,-0.258 -2.541,-0.525 -3.867,-0.799 -1.332,-0.247 -2.709,-0.442 -4.109,-0.674 -1.403,-0.208 -2.85,-0.337 -4.311,-0.514 -1.465,-0.133 -2.961,-0.211 -4.469,-0.319 -1.515,-0.017 -3.043,-0.097 -4.585,-0.07 -1.541,0.046 -3.093,0.038 -4.646,0.177 l -2.332,0.165 -2.325,0.264 c -1.552,0.148 -3.083,0.462 -4.614,0.689 -1.515,0.33 -3.038,0.581 -4.514,0.988 -2.973,0.703 -5.825,1.656 -8.526,2.687 -2.709,1.017 -5.213,2.259 -7.52,3.51 -2.312,1.255 -4.349,2.662 -6.146,4.023 -1.808,1.362 -3.268,2.796 -4.471,4.094 -1.209,1.31 -2.016,2.561 -2.627,3.577 -0.156,0.335 -0.328,0.663 -0.462,0.948 -0.069,0.144 -0.132,0.28 -0.169,0.394 -0.058,0.162 -0.111,0.311 -0.161,0.449 -0.052,0.145 -0.108,0.218 -0.141,0.435 -0.156,0.729 -0.238,1.115 -0.238,1.115 l -5.212,-1.225 c 0,0 0.096,-0.358 0.272,-1.013 0.008,-0.032 0.014,-0.056 0.022,-0.091 0.029,-0.149 0.152,-0.455 0.259,-0.736"
           style="fill:#ffffff;fill-opacity:1;fill-rule:nonzero;stroke:none"
           id="path7828"
           inkscape:connector-curvature="0" /></g></g></g></svg>