<svg width="0" height="0" class="hidden">
  <symbol version="1.1" id="logo" xmlns="http://www.w3.org/2000/svg" xmlns:xlink="http://www.w3.org/1999/xlink" x="0px" y="0px" enable-background="new 0 0 1309.876 1759.653" xml:space="preserve" viewBox="0 0 1309.876 1759.653">
    <g>
      <path d="M841.503,402.413c177.963-0.292,162.23-7.295,161.934,126.027c54.869-35.873,109.825-71.612,164.734-107.433
		c15.062,2.596,29.873,6.536,44.242,11.733c0.087,97.108,0.029,194.223,0.035,291.337c-14.404,5.296-29.302,9.137-44.393,11.826
		c-54.915-35.681-109.749-71.502-164.612-107.27c0.133,81.507,3.638,86.956-14.451,100.717
		c-24.12,18.346-9.148,13.758-432.978,13.758c-19.799,0.378-42.665-6.387-54.519-22.086c-7.827-10.319-6.312-14.797-6.256-63.063
		c-61.806,12.571-123.676,24.833-185.476,37.439c0.676,6.027,1.671,14.696-1.053,18.175c-4.062-4.574-4.836-11.017-6.408-16.714
		c-13.385,2.75-109.711,33.307-187.972,38.358c-3.893,0.198-17.037,0.906-19.002-2.345c2.642-13.392,154.979-47.905,204.966-46.68
		c-0.722-4.734-3.051-20.947-0.308-24.891c3.876-0.654,7.707,20.183,8.392,23.785c62.271-12.623,124.578-25.083,186.861-37.66
		c-0.013-49.849,0.962-124.107-0.564-140.045c-33.116,0.801-66.284-7.457-95.177-23.618
		c-163.92-91.677-91.395-341.895,103.042-326.898c46.382,3.577,78.351,23.831,78.351,23.831c4.417,0.21,7.712-9.99,10.282-14.305
		c64.039-107.497,221.029-114.843,296.524-20.217C954.681,230.131,930.537,348.266,841.503,402.413z"></path>
      <path d="M629.67,752.832c78.474-0.105,156.947-0.035,235.415-0.035C839.053,874.034,660.89,881.696,629.67,752.832z"></path>
      <path d="M619.543,852.234c85.126,0.006,170.245,0.006,255.365,0.006c0,27.656-0.064,55.311,0.035,82.972
		c-14.13,0.023-28.255,0.035-42.379-0.012c1.408,2.221,377.927,727.716,381.467,734.802c0.873,1.63,0.664,3.905-0.815,5.145
		c-2.331,2.042-6.811,7.564-10.231,3.573c-171.421-311.979-405.746-738.223-408.489-743.485c-14.852-0.012-29.71-0.017-44.562,0.006
		c18.769,681.234,19.442,641.573,12.885,642.804c-19.056-288.452-42.619-640.306-42.56-642.815
		c-8.957-0.006-17.913-0.012-26.87,0.006c-135.693,247.019-271.329,494.068-407.15,741.012c-1.496-1.443-3.044-2.834-4.644-4.15
		c1.609-2.708,331.844-639.22,382.707-736.868c-14.934-0.012-29.861,0.023-44.789-0.017
		C619.607,907.551,619.549,879.895,619.543,852.234z"></path>
    </g>
  </symbol>
  <symbol version="1.1" xml:space="preserve" xmlns="http://www.w3.org/2000/svg" xmlns:xlink="http://www.w3.org/1999/xlink" viewBox="0 0 512 512" id="cross">
    <g id="layer">
      <g>
        <line x1="169.449" x2="342.551" y1="169.449" y2="342.551"></line>
        <line x1="342.551" x2="169.449" y1="169.449" y2="342.551"></line>
      </g>
      <g>
        <path d="M256,59c26.602,0,52.399,5.207,76.677,15.475c23.456,9.921,44.526,24.128,62.623,42.225    c18.098,18.098,32.304,39.167,42.226,62.624C447.794,203.601,453,229.398,453,256c0,26.602-5.206,52.399-15.475,76.677    c-9.922,23.456-24.128,44.526-42.226,62.623c-18.097,18.098-39.167,32.304-62.623,42.226C308.399,447.794,282.602,453,256,453    c-26.602,0-52.399-5.206-76.676-15.475c-23.457-9.922-44.526-24.128-62.624-42.226c-18.097-18.097-32.304-39.167-42.225-62.623    C64.207,308.399,59,282.602,59,256c0-26.602,5.207-52.399,15.475-76.676c9.921-23.457,24.128-44.526,42.225-62.624    c18.098-18.097,39.167-32.304,62.624-42.225C203.601,64.207,229.398,59,256,59 M256,43C138.363,43,43,138.363,43,256    s95.363,213,213,213s213-95.363,213-213S373.637,43,256,43L256,43z"></path>
      </g>
    </g>
    <g id="expanded">
      <g>
        <path d="M267.314,256l80.894-80.894c3.124-3.124,3.124-8.189,0-11.313c-3.125-3.124-8.189-3.124-11.314,0L256,244.686    l-80.894-80.894c-3.124-3.124-8.189-3.124-11.313,0c-3.125,3.124-3.125,8.189,0,11.313L244.686,256l-80.894,80.894    c-3.125,3.125-3.125,8.189,0,11.314c1.562,1.562,3.609,2.343,5.657,2.343s4.095-0.781,5.657-2.343L256,267.314l80.894,80.894    c1.563,1.562,3.609,2.343,5.657,2.343s4.095-0.781,5.657-2.343c3.124-3.125,3.124-8.189,0-11.314L267.314,256z"></path>
        <path d="M256,59c26.602,0,52.399,5.207,76.677,15.475c23.456,9.921,44.526,24.128,62.623,42.225    c18.098,18.098,32.304,39.167,42.226,62.624C447.794,203.601,453,229.398,453,256c0,26.602-5.206,52.399-15.475,76.677    c-9.922,23.456-24.128,44.526-42.226,62.623c-18.097,18.098-39.167,32.304-62.623,42.226C308.399,447.794,282.602,453,256,453    c-26.602,0-52.399-5.206-76.676-15.475c-23.457-9.922-44.526-24.128-62.624-42.226c-18.097-18.097-32.304-39.167-42.225-62.623    C64.207,308.399,59,282.602,59,256c0-26.602,5.207-52.399,15.475-76.676c9.921-23.457,24.128-44.526,42.225-62.624    c18.098-18.097,39.167-32.304,62.624-42.225C203.601,64.207,229.398,59,256,59 M256,43C138.363,43,43,138.363,43,256    s95.363,213,213,213s213-95.363,213-213S373.637,43,256,43L256,43z"></path>
      </g>
    </g>
  </symbol>
  <symbol version="1.1" id="prev-page" xmlns="http://www.w3.org/2000/svg" xmlns:xlink="http://www.w3.org/1999/xlink" x="0px" y="0px" xml:space="preserve" viewBox="0 0 300.003 300.003">
    <g>
      <g>
        <path d="M150,0C67.159,0,0.001,67.159,0.001,150c0,82.838,67.157,150.003,149.997,150.003S300.002,232.838,300.002,150
			C300.002,67.159,232.839,0,150,0z M189.226,218.202c-2.736,2.734-6.321,4.101-9.902,4.101c-3.582,0-7.169-1.367-9.902-4.103
			l-56.295-56.292c-0.838-0.537-1.639-1.154-2.368-1.886c-2.796-2.799-4.145-6.479-4.077-10.144
			c-0.065-3.667,1.281-7.35,4.077-10.146c0.734-0.731,1.53-1.349,2.368-1.886l56.043-56.043c5.47-5.465,14.34-5.467,19.808,0.003
			c5.47,5.467,5.47,14.335,0,19.808l-48.265,48.265l48.514,48.516C194.695,203.864,194.695,212.732,189.226,218.202z"></path>
      </g>
    </g>
    <g></g>
    <g></g>
    <g></g>
    <g></g>
    <g></g>
    <g></g>
    <g></g>
    <g></g>
    <g></g>
    <g></g>
    <g></g>
    <g></g>
    <g></g>
    <g></g>
    <g></g>
  </symbol>
  <symbol version="1.1" id="next-page" xmlns="http://www.w3.org/2000/svg" xmlns:xlink="http://www.w3.org/1999/xlink" x="0px" y="0px" xml:space="preserve" viewBox="0 0 300 300">
    <g>
      <g>
        <path d="M150,0C67.157,0,0,67.157,0,150c0,82.841,67.157,150,150,150s150-67.159,150-150C300,67.157,232.843,0,150,0z
			 M195.708,160.159c-0.731,0.731-1.533,1.349-2.368,1.886l-56.295,56.295c-2.734,2.736-6.318,4.103-9.902,4.103
			s-7.166-1.367-9.902-4.103c-5.47-5.47-5.47-14.34,0-19.808l48.509-48.516l-48.265-48.265c-5.47-5.473-5.47-14.34,0-19.808
			c5.47-5.47,14.338-5.467,19.808-0.003l56.046,56.043c0.835,0.537,1.637,1.154,2.365,1.886c2.796,2.796,4.145,6.479,4.082,10.146
			C199.852,153.68,198.506,157.361,195.708,160.159z"></path>
      </g>
    </g>
    <g></g>
    <g></g>
    <g></g>
    <g></g>
    <g></g>
    <g></g>
    <g></g>
    <g></g>
    <g></g>
    <g></g>
    <g></g>
    <g></g>
    <g></g>
    <g></g>
    <g></g>
  </symbol>
</svg>
